# xmcd CD database file
#
# Track frame offsets:
#	150
#	2097
#	22095
#	44862
#	61932
#	76892
#	95832
#	106207
#	124925
#	146462
#	166597
#	183172
#	201670
#	225102
#	226882
#	228597
#	237597
#
# Disc length: 3466 seconds
#
# Revision: 1
# Processed by: cddbd v1.4PL0 Copyright (c) Steve Scherf et al.
# Submitted via: CDex 1.50beta8
#
DISCID=df0d8811
DTITLE=남궁연 악단 - Op.1
DYEAR=2002
DGENRE=Jazz
TTITLE0=Intro - do do do
TTITLE1=이제 난 다시 혼자야
TTITLE2=하루 또 하루
TTITLE3=Real Love
TTITLE4=너도 당해봐
TTITLE5=저, 저, 저기요
TTITLE6=Thanks To Min Kim
TTITLE7=We Are The One
TTITLE8=보고 싶습니다
TTITLE9=이대로 떠나가지만
TTITLE10=너도 당해봐 (Remix)
TTITLE11=어떤 저녁,
TTITLE12=Jazz
TTITLE13=Hidden
TTITLE14=Hidden
TTITLE15=Hidden
TTITLE16=Hidden
EXTD=YEAR: 2002
EXTT0=
EXTT1=
EXTT2=
EXTT3=
EXTT4=
EXTT5=
EXTT6=
EXTT7=
EXTT8=
EXTT9=
EXTT10=
EXTT11=
EXTT12=
EXTT13=
EXTT14=
EXTT15=
EXTT16=
PLAYORDER=
